<?xml version="1.0" encoding="UTF-8"?>
<svg enable-background="new 0 0 64 64" version="1.1" viewBox="0 0 64 64" xml:space="preserve" xmlns="http://www.w3.org/2000/svg">
<style type="text/css">
	.st0{fill:#4F5D73;}
	.st1{fill:#C75C5C;}
	.st2{fill:#F5CF87;}
	.st3{fill:#76C2AF;}
	.st4{opacity:0.2;}
	.st5{fill:#231F20;}
	.st6{fill:#E0E0D1;}
	.st7{fill:#77B3D4;}
</style>
		<circle class="st0" cx="32" cy="32" r="32"/>
		<path class="st1" d="m16 36c0 1.1-0.9 2-2 2s-2-0.9-2-2v-2c0-1.1 0.9-2 2-2s2 0.9 2 2v2z"/>
		<path class="st2" d="m24 28c0 1.1-0.9 2-2 2s-2-0.9-2-2v-2c0-1.1 0.9-2 2-2s2 0.9 2 2v2z"/>
		<path class="st2" d="m44 28c0 1.1-0.9 2-2 2s-2-0.9-2-2v-2c0-1.1 0.9-2 2-2s2 0.9 2 2v2z"/>
		<path class="st3" d="m48 36c0 1.1 0.9 2 2 2s2-0.9 2-2v-2c0-1.1-0.9-2-2-2s-2 0.9-2 2v2z"/>
	<g class="st4">
		<path class="st5" d="m32 32.6l17 4.8c2.9 0.9 3-0.4 3-2.4v1.2c0-2 0.1-3.4-1.8-4.5l-18.2-8.7-18.2 8.7c-1.8 1.1-1.8 2.5-1.8 4.5v-1.2c0 2 0.1 3.3 3 2.4l17-4.8z"/>
	</g>
		<path class="st6" d="m32 30.6l17 4.8c2.9 0.9 3-0.4 3-2.4v1.2c0-2 0.1-3.4-1.8-4.5l-18.2-8.7-18.2 8.7c-1.8 1.1-1.8 2.5-1.8 4.5v-1.2c0 2 0.1 3.3 3 2.4l17-4.8z"/>
			<path class="st6" d="m52 33.4v-0.4 0.4z"/>
			<path class="st6" d="m52 33.5v0.7-0.7z"/>
		<g class="st4">
			<polygon class="st5" points="32 21 27 23.4 27.4 31.9 32 30.6 36.6 31.9 37 23.4"/>
		</g>
		<path class="st6" d="m35 43.6c0 1.6-0.3 2.9-2 2.9h-2c-1.7 0-2-1.3-2-2.9l-1-26.9c0-1.6 2.3-6.8 4-6.8s4 5.2 4 6.8l-1 26.9z"/>
	<g class="st4">
		<path class="st5" d="m43 48.8l-11-6.8-11 6.8c-1.2 0.9-1 2.3-1 3.9 0 0 0.2 1.8 2 1.1l10-3.8 10 3.9c1.8 0.7 2-1.1 2-1.1 0-1.7 0.1-3-1-4z"/>
	</g>
		<path class="st6" d="m43 46.8l-11-6.8-11 6.8c-1.2 0.9-1 2.3-1 3.9 0 0 0.2 1.8 2 1.1l10-3.8 10 3.9c1.8 0.7 2-1.1 2-1.1 0-1.7 0.1-3-1-4z"/>
	<g class="st4">
		<path class="st5" d="m34 51c0 1.1-0.9 2-2 2s-2-0.9-2-2v-5c0-1.1 0.9-2 2-2s2 0.9 2 2v5z"/>
	</g>
		<path class="st6" d="m34 49c0 1.1-0.9 2-2 2s-2-0.9-2-2v-5c0-1.1 0.9-2 2-2s2 0.9 2 2v5z"/>
			<path class="st7" d="m32 16c1.2 0 2.2-1.2 2.7-3-0.8-1.6-1.9-3-2.7-3s-1.9 1.4-2.7 3c0.5 1.8 1.5 3 2.7 3z"/>
</svg>
